<?xml version="1.0" encoding="UTF-8" standalone="no"?>
<!DOCTYPE svg PUBLIC "-//W3C//DTD SVG 1.1//EN" "http://www.w3.org/Graphics/SVG/1.1/DTD/svg11.dtd">
<svg version="1.1" xmlns="http://www.w3.org/2000/svg" xmlns:xlink="http://www.w3.org/1999/xlink" preserveAspectRatio="xMidYMid meet" viewBox="0 0 200 200" width="200" height="200"><defs><path d="M188.37 0C194.79 0 200 5.21 200 11.63C200 49.3 200 150.7 200 188.37C200 194.79 194.79 200 188.37 200C150.7 200 49.3 200 11.63 200C5.21 200 0 194.79 0 188.37C0 150.7 0 49.3 0 11.63C0 5.21 5.21 0 11.63 0C49.3 0 150.7 0 188.37 0Z" id="arGwkZLpr"></path><path d="M55.7 133.46L95.7 171.8L73.3 193.27L33.3 154.93L33.3 154.93L10.89 133.46L10.89 133.46L10.89 133.46L33.3 111.99L33.3 111.99L73.3 73.64L95.7 95.12L55.7 133.46Z" id="bnDKBPeoj"></path><path d="M181.26 161.29C181.26 179.22 166.7 193.79 148.76 193.79C130.82 193.79 116.26 179.22 116.26 161.29C116.26 143.35 130.82 128.79 148.76 128.79C166.7 128.79 181.26 143.35 181.26 161.29Z" id="b1IANqHV7g"></path><path d="M149.02 155.21L183.55 155.21L183.55 167.36L149.02 167.36L149.02 155.21Z" id="abJ7g3uiO"></path><path d="M160.02 138.96C160.02 141.99 157.55 144.46 154.52 144.46C151.48 144.46 149.02 141.99 149.02 138.96C149.02 135.92 151.48 133.46 154.52 133.46C157.55 133.46 160.02 135.92 160.02 138.96Z" id="b1tN0pt4Xp"></path></defs><g><g><g><use xlink:href="#arGwkZLpr" opacity="1" fill="#4e95d2" fill-opacity="1"></use><g><use xlink:href="#arGwkZLpr" opacity="1" fill-opacity="0" stroke="#8f8dcc" stroke-width="0" stroke-opacity="1"></use></g></g><g><use xlink:href="#bnDKBPeoj" opacity="1" fill="#ffffff" fill-opacity="1"></use><g><use xlink:href="#bnDKBPeoj" opacity="1" fill-opacity="0" stroke="#9f7973" stroke-width="0" stroke-opacity="1"></use></g></g><g><use xlink:href="#b1IANqHV7g" opacity="1" fill="#ffffff" fill-opacity="1"></use><g><use xlink:href="#b1IANqHV7g" opacity="1" fill-opacity="0" stroke="#ab4191" stroke-width="0" stroke-opacity="1"></use></g></g><g><use xlink:href="#abJ7g3uiO" opacity="1" fill="#4e95d2" fill-opacity="1"></use><g><use xlink:href="#abJ7g3uiO" opacity="1" fill-opacity="0" stroke="#c95c55" stroke-width="0" stroke-opacity="1"></use></g></g><g><use xlink:href="#b1tN0pt4Xp" opacity="1" fill="#4e95d2" fill-opacity="1"></use><g><use xlink:href="#b1tN0pt4Xp" opacity="1" fill-opacity="0" stroke="#5b6680" stroke-width="0" stroke-opacity="1"></use></g></g></g></g></svg>