<?xml version="1.0" encoding="UTF-8" standalone="no"?>
<!DOCTYPE svg PUBLIC "-//W3C//DTD SVG 1.1//EN" "http://www.w3.org/Graphics/SVG/1.1/DTD/svg11.dtd">
<svg version="1.1" xmlns="http://www.w3.org/2000/svg" xmlns:xlink="http://www.w3.org/1999/xlink" preserveAspectRatio="xMidYMid meet" viewBox="0 0 300 300" width="300" height="300"><defs><path d="M289 13.34L289 291.34L11 291.34L11 13.34L289 13.34Z" id="a2mlvXE5iI"></path><path d="M289 10.71L289 288.71L11 288.71L11 10.71L289 10.71Z" id="c3B1M5tua"></path><path d="M187.38 186.09L150 214.48L150 214.48L150 214.48L115.29 186.09L115.29 186.09L45.88 135.38L83.25 106.99L150 157.69L216.75 106.99L254.12 135.38L187.38 186.09L187.38 186.09Z" id="bGZSdjCtf"></path><radialGradient id="gradientb47v6ftULe" gradientUnits="userSpaceOnUse" cx="81.92" cy="123.01" r="0"><stop style="stop-color: #53cbff;stop-opacity: 1" offset="0%"></stop><stop style="stop-color: #150c5c;stop-opacity: 1" offset="100%"></stop></radialGradient><path d="M187.38 186.09L150 214.48L150 214.48L150 214.48L115.29 186.09L115.29 186.09L45.88 135.38L83.25 106.99L150 157.69L216.75 106.99L254.12 135.38L187.38 186.09L187.38 186.09Z" id="bS6CyfviG"></path><radialGradient id="gradientf2CAHz7zgY" gradientUnits="userSpaceOnUse" cx="67.54" cy="123.66" r="112.77"><stop style="stop-color: #50c1f7;stop-opacity: 1" offset="0%"></stop><stop style="stop-color: #150c5c;stop-opacity: 1" offset="100%"></stop></radialGradient></defs><g><g><g><use xlink:href="#a2mlvXE5iI" opacity="1" fill="#000000" fill-opacity="0"></use><g><use xlink:href="#a2mlvXE5iI" opacity="1" fill-opacity="0" stroke="#000000" stroke-width="1" stroke-opacity="0"></use></g></g><g><use xlink:href="#c3B1M5tua" opacity="1" fill="#000000" fill-opacity="0"></use><g><use xlink:href="#c3B1M5tua" opacity="1" fill-opacity="0" stroke="#150c5c" stroke-width="21" stroke-opacity="1"></use></g><g><filter id="shadow5316067" x="2" y="1.71" width="297" height="297" filterUnits="userSpaceOnUse" primitiveUnits="userSpaceOnUse"><feFlood></feFlood><feComposite in2="SourceAlpha" operator="out"></feComposite><feGaussianBlur stdDeviation="1"></feGaussianBlur><feOffset dx="1" dy="1" result="afterOffset"></feOffset><feFlood flood-color="#000000" flood-opacity="0.5"></feFlood><feComposite in2="afterOffset" operator="in"></feComposite><feMorphology operator="dilate" radius="1"></feMorphology><feComposite in2="SourceAlpha" operator="in"></feComposite></filter><path d="M289 10.71L289 288.71L11 288.71L11 10.71L289 10.71Z" id="a1DghEkXmO" fill="white" fill-opacity="1" filter="url(#shadow5316067)"></path></g></g><g><use xlink:href="#bGZSdjCtf" opacity="1" fill="url(#gradientb47v6ftULe)"></use><g><use xlink:href="#bGZSdjCtf" opacity="1" fill-opacity="0" stroke="#000000" stroke-width="1" stroke-opacity="0"></use></g></g><g><g><filter id="shadow14431044" x="35.88" y="96.99" width="230.24" height="128.49" filterUnits="userSpaceOnUse" primitiveUnits="userSpaceOnUse"><feFlood></feFlood><feComposite in2="SourceAlpha" operator="in"></feComposite><feGaussianBlur stdDeviation="1"></feGaussianBlur><feOffset dx="2" dy="1" result="afterOffset"></feOffset><feFlood flood-color="#150c5c" flood-opacity="0.27"></feFlood><feComposite in2="afterOffset" operator="in"></feComposite><feMorphology operator="dilate" radius="1"></feMorphology><feComposite in2="SourceAlpha" operator="out"></feComposite></filter><path d="M187.38 186.09L150 214.48L150 214.48L150 214.48L115.29 186.09L115.29 186.09L45.88 135.38L83.25 106.99L150 157.69L216.75 106.99L254.12 135.38L187.38 186.09L187.38 186.09Z" id="d5tUltNJD1" fill="white" fill-opacity="1" filter="url(#shadow14431044)"></path></g><use xlink:href="#bS6CyfviG" opacity="1" fill="url(#gradientf2CAHz7zgY)"></use><g><use xlink:href="#bS6CyfviG" opacity="1" fill-opacity="0" stroke="#d45d5d" stroke-width="0" stroke-opacity="1"></use></g></g></g></g></svg>