<?xml version="1.0" encoding="UTF-8" standalone="no"?>
<!DOCTYPE svg PUBLIC "-//W3C//DTD SVG 1.1//EN" "http://www.w3.org/Graphics/SVG/1.1/DTD/svg11.dtd">
<svg version="1.1" xmlns="http://www.w3.org/2000/svg" xmlns:xlink="http://www.w3.org/1999/xlink" preserveAspectRatio="xMidYMid meet" viewBox="0 0 300 300" width="300" height="300"><defs><path d="M289 13.34L289 291.34L11 291.34L11 13.34L289 13.34Z" id="a2mlvXE5iI"></path><path d="M291.63 8.95L291.63 286.95L13.63 286.95L13.63 8.95L291.63 8.95Z" id="bkzpyRvPA"></path><path d="M187.38 186.09L150 214.48L150 214.48L150 214.48L115.29 186.09L115.29 186.09L45.88 135.38L83.25 106.99L150 157.69L216.75 106.99L254.12 135.38L187.38 186.09L187.38 186.09Z" id="bGZSdjCtf"></path><radialGradient id="gradientb47v6ftULe" gradientUnits="userSpaceOnUse" cx="81.92" cy="123.01" r="0"><stop style="stop-color: #53cbff;stop-opacity: 1" offset="0%"></stop><stop style="stop-color: #150c5c;stop-opacity: 1" offset="100%"></stop></radialGradient><path d="M187.38 186.09L150 214.48L150 214.48L150 214.48L115.29 186.09L115.29 186.09L45.88 135.38L83.25 106.99L150 157.69L216.75 106.99L254.12 135.38L187.38 186.09L187.38 186.09Z" id="h3wFTKzx60"></path></defs><g><g><g><use xlink:href="#a2mlvXE5iI" opacity="1" fill="#000000" fill-opacity="0"></use><g><use xlink:href="#a2mlvXE5iI" opacity="1" fill-opacity="0" stroke="#000000" stroke-width="1" stroke-opacity="0"></use></g></g><g><use xlink:href="#bkzpyRvPA" opacity="1" fill="#000000" fill-opacity="0"></use><g><use xlink:href="#bkzpyRvPA" opacity="1" fill-opacity="0" stroke="#ffffff" stroke-width="21" stroke-opacity="1"></use></g><g><filter id="shadow8541513" x="4.63" y="-0.05" width="297" height="297" filterUnits="userSpaceOnUse" primitiveUnits="userSpaceOnUse"><feFlood></feFlood><feComposite in2="SourceAlpha" operator="out"></feComposite><feGaussianBlur stdDeviation="1"></feGaussianBlur><feOffset dx="1" dy="1" result="afterOffset"></feOffset><feFlood flood-color="#000000" flood-opacity="0.5"></feFlood><feComposite in2="afterOffset" operator="in"></feComposite><feMorphology operator="dilate" radius="1"></feMorphology><feComposite in2="SourceAlpha" operator="in"></feComposite></filter><path d="M291.63 8.95L291.63 286.95L13.63 286.95L13.63 8.95L291.63 8.95Z" id="f3crwbseW" fill="white" fill-opacity="1" filter="url(#shadow8541513)"></path></g></g><g><use xlink:href="#bGZSdjCtf" opacity="1" fill="url(#gradientb47v6ftULe)"></use><g><use xlink:href="#bGZSdjCtf" opacity="1" fill-opacity="0" stroke="#000000" stroke-width="1" stroke-opacity="0"></use></g></g><g><g><filter id="shadow16572121" x="35.88" y="96.99" width="230.24" height="128.49" filterUnits="userSpaceOnUse" primitiveUnits="userSpaceOnUse"><feFlood></feFlood><feComposite in2="SourceAlpha" operator="in"></feComposite><feGaussianBlur stdDeviation="1"></feGaussianBlur><feOffset dx="2" dy="1" result="afterOffset"></feOffset><feFlood flood-color="#150c5c" flood-opacity="0.27"></feFlood><feComposite in2="afterOffset" operator="in"></feComposite><feMorphology operator="dilate" radius="1"></feMorphology><feComposite in2="SourceAlpha" operator="out"></feComposite></filter><path d="M187.38 186.09L150 214.48L150 214.48L150 214.48L115.29 186.09L115.29 186.09L45.88 135.38L83.25 106.99L150 157.69L216.75 106.99L254.12 135.38L187.38 186.09L187.38 186.09Z" id="d4uRbXqi2A" fill="white" fill-opacity="1" filter="url(#shadow16572121)"></path></g><use xlink:href="#h3wFTKzx60" opacity="1" fill="#ffffff" fill-opacity="1"></use><g><use xlink:href="#h3wFTKzx60" opacity="1" fill-opacity="0" stroke="#d45d5d" stroke-width="0" stroke-opacity="1"></use></g></g></g></g></svg>