<?xml version="1.0" encoding="UTF-8" standalone="no"?>
<!DOCTYPE svg PUBLIC "-//W3C//DTD SVG 1.1//EN" "http://www.w3.org/Graphics/SVG/1.1/DTD/svg11.dtd">
<svg version="1.1" xmlns="http://www.w3.org/2000/svg" xmlns:xlink="http://www.w3.org/1999/xlink" preserveAspectRatio="xMidYMid meet" viewBox="0 0 250 250" width="250" height="250"><defs><path d="M30 30L220 30L220 220L30 220L30 30Z" id="a5ldUU0PjD"></path><mask id="maskf2P4WcKNl" x="-30" y="-30" width="310" height="310" maskUnits="userSpaceOnUse"><rect x="-30" y="-30" width="310" height="310" fill="white"></rect><use xlink:href="#a5ldUU0PjD" opacity="1" fill="black"></use></mask><path d="M199 104.75L199 104.75L186.85 94.75L172.59 83L172.59 83L172.59 83L146.17 104.75L146.17 104.75L99 143.58L125.42 165.33L169.42 129.11L172.59 126.5L172.59 126.5L199 104.75L199 104.75Z" id="a1yB1dP8rD"></path><radialGradient id="gradiente6VRPw1Q0" gradientUnits="userSpaceOnUse" cx="122.51" cy="150.62" r="75.59"><stop style="stop-color: #00a0d0;stop-opacity: 1" offset="0%"></stop><stop style="stop-color: #001831;stop-opacity: 1" offset="100%"></stop></radialGradient><path d="M151 143.58L151 143.58L138.85 153.59L124.59 165.33L124.59 165.33L124.59 165.33L98.17 143.58L98.17 143.58L51 104.75L77.42 83L121.42 119.23L124.59 121.84L124.59 121.84L151 143.58L151 143.58Z" id="kdZdCxnpC"></path><radialGradient id="gradientc3koqFCWz2" gradientUnits="userSpaceOnUse" cx="74.51" cy="97.72" r="75.59"><stop style="stop-color: #00a0d0;stop-opacity: 1" offset="0%"></stop><stop style="stop-color: #001831;stop-opacity: 1" offset="100%"></stop></radialGradient></defs><g><g><g><use xlink:href="#a5ldUU0PjD" opacity="1" fill="#150c5c" fill-opacity="0"></use><g mask="url(#maskf2P4WcKNl)"><use xlink:href="#a5ldUU0PjD" opacity="1" fill-opacity="0" stroke="#002d5c" stroke-width="60" stroke-opacity="1"></use></g></g><g><g><filter id="shadow11407009" x="79" y="63" width="141" height="124.33" filterUnits="userSpaceOnUse" primitiveUnits="userSpaceOnUse"><feFlood></feFlood><feComposite in2="SourceAlpha" operator="in"></feComposite><feGaussianBlur stdDeviation="2.45"></feGaussianBlur><feOffset dx="1" dy="2" result="afterOffset"></feOffset><feFlood flood-color="#1351c8" flood-opacity="0.52"></feFlood><feComposite in2="afterOffset" operator="in"></feComposite><feMorphology operator="dilate" radius="1"></feMorphology><feComposite in2="SourceAlpha" operator="out"></feComposite></filter><path d="M199 104.75L199 104.75L186.85 94.75L172.59 83L172.59 83L172.59 83L146.17 104.75L146.17 104.75L99 143.58L125.42 165.33L169.42 129.11L172.59 126.5L172.59 126.5L199 104.75L199 104.75Z" id="fU3aemPCB" fill="white" fill-opacity="1" filter="url(#shadow11407009)"></path></g><use xlink:href="#a1yB1dP8rD" opacity="1" fill="url(#gradiente6VRPw1Q0)"></use><g><use xlink:href="#a1yB1dP8rD" opacity="1" fill-opacity="0" stroke="#150c5c" stroke-width="0" stroke-opacity="1"></use></g></g><g><g><filter id="shadow3367780" x="31" y="63" width="141" height="124.33" filterUnits="userSpaceOnUse" primitiveUnits="userSpaceOnUse"><feFlood></feFlood><feComposite in2="SourceAlpha" operator="in"></feComposite><feGaussianBlur stdDeviation="2.45"></feGaussianBlur><feOffset dx="1" dy="2" result="afterOffset"></feOffset><feFlood flood-color="#1352c8" flood-opacity="0.52"></feFlood><feComposite in2="afterOffset" operator="in"></feComposite><feMorphology operator="dilate" radius="1"></feMorphology><feComposite in2="SourceAlpha" operator="out"></feComposite></filter><path d="M151 143.58L151 143.58L138.85 153.59L124.59 165.33L124.59 165.33L124.59 165.33L98.17 143.58L98.17 143.58L51 104.75L77.42 83L121.42 119.23L124.59 121.84L124.59 121.84L151 143.58L151 143.58Z" id="jB3B85dp7" fill="white" fill-opacity="1" filter="url(#shadow3367780)"></path></g><use xlink:href="#kdZdCxnpC" opacity="1" fill="url(#gradientc3koqFCWz2)"></use><g><use xlink:href="#kdZdCxnpC" opacity="1" fill-opacity="0" stroke="#150c5c" stroke-width="0" stroke-opacity="1"></use></g></g></g></g></svg>