<?xml version="1.0" encoding="UTF-8" standalone="no"?>
<!DOCTYPE svg PUBLIC "-//W3C//DTD SVG 1.1//EN" "http://www.w3.org/Graphics/SVG/1.1/DTD/svg11.dtd">
<svg version="1.1" xmlns="http://www.w3.org/2000/svg" xmlns:xlink="http://www.w3.org/1999/xlink" preserveAspectRatio="xMidYMid meet" viewBox="0 0 250 250" width="250" height="250"><defs><path d="M30 30L220 30L220 220L30 220L30 30Z" id="hjlHcMykY"></path><mask id="maskb9Sq2uHmNs" x="-30" y="-30" width="310" height="310" maskUnits="userSpaceOnUse"><rect x="-30" y="-30" width="310" height="310" fill="white"></rect><use xlink:href="#hjlHcMykY" opacity="1" fill="black"></use></mask><path d="M199 104.75L199 104.75L186.85 94.75L172.59 83L172.59 83L172.59 83L146.17 104.75L146.17 104.75L99 143.58L125.42 165.33L169.42 129.11L172.59 126.5L172.59 126.5L199 104.75L199 104.75Z" id="e9H1788onP"></path><path d="M151 143.58L151 143.58L138.85 153.59L124.59 165.33L124.59 165.33L124.59 165.33L98.17 143.58L98.17 143.58L51 104.75L77.42 83L121.42 119.23L124.59 121.84L124.59 121.84L151 143.58L151 143.58Z" id="bCPWdI3SI"></path></defs><g><g><g><use xlink:href="#hjlHcMykY" opacity="1" fill="#150c5c" fill-opacity="0"></use><g mask="url(#maskb9Sq2uHmNs)"><use xlink:href="#hjlHcMykY" opacity="1" fill-opacity="0" stroke="#ffffff" stroke-width="60" stroke-opacity="1"></use></g></g><g><g><filter id="shadow10389382" x="79" y="63" width="141" height="124.33" filterUnits="userSpaceOnUse" primitiveUnits="userSpaceOnUse"><feFlood></feFlood><feComposite in2="SourceAlpha" operator="in"></feComposite><feGaussianBlur stdDeviation="2.45"></feGaussianBlur><feOffset dx="1" dy="2" result="afterOffset"></feOffset><feFlood flood-color="#8f8f8f" flood-opacity="0.52"></feFlood><feComposite in2="afterOffset" operator="in"></feComposite><feMorphology operator="dilate" radius="1"></feMorphology><feComposite in2="SourceAlpha" operator="out"></feComposite></filter><path d="M199 104.75L199 104.75L186.85 94.75L172.59 83L172.59 83L172.59 83L146.17 104.75L146.17 104.75L99 143.58L125.42 165.33L169.42 129.11L172.59 126.5L172.59 126.5L199 104.75L199 104.75Z" id="c6ljXzsSK" fill="white" fill-opacity="1" filter="url(#shadow10389382)"></path></g><use xlink:href="#e9H1788onP" opacity="1" fill="#ffffff" fill-opacity="1"></use><g><use xlink:href="#e9H1788onP" opacity="1" fill-opacity="0" stroke="#150c5c" stroke-width="0" stroke-opacity="1"></use></g></g><g><g><filter id="shadow5581964" x="31" y="63" width="141" height="124.33" filterUnits="userSpaceOnUse" primitiveUnits="userSpaceOnUse"><feFlood></feFlood><feComposite in2="SourceAlpha" operator="in"></feComposite><feGaussianBlur stdDeviation="2.45"></feGaussianBlur><feOffset dx="1" dy="2" result="afterOffset"></feOffset><feFlood flood-color="#8f8f8f" flood-opacity="0.52"></feFlood><feComposite in2="afterOffset" operator="in"></feComposite><feMorphology operator="dilate" radius="1"></feMorphology><feComposite in2="SourceAlpha" operator="out"></feComposite></filter><path d="M151 143.58L151 143.58L138.85 153.59L124.59 165.33L124.59 165.33L124.59 165.33L98.17 143.58L98.17 143.58L51 104.75L77.42 83L121.42 119.23L124.59 121.84L124.59 121.84L151 143.58L151 143.58Z" id="a2UgoFpjO" fill="white" fill-opacity="1" filter="url(#shadow5581964)"></path></g><use xlink:href="#bCPWdI3SI" opacity="1" fill="#ffffff" fill-opacity="1"></use><g><use xlink:href="#bCPWdI3SI" opacity="1" fill-opacity="0" stroke="#150c5c" stroke-width="0" stroke-opacity="1"></use></g></g></g></g></svg>