<?xml version="1.0" encoding="iso-8859-1"?>
<!-- Generator: Adobe Illustrator 19.0.0, SVG Export Plug-In . SVG Version: 6.00 Build 0)  -->
<svg xmlns="http://www.w3.org/2000/svg" xmlns:xlink="http://www.w3.org/1999/xlink" version="1.1" id="Layer_1" x="0px" y="0px" viewBox="0 0 512 512" style="enable-background:new 0 0 512 512;" xml:space="preserve" width="512px" height="512px">
<g>
	<g>
		<path d="M491.416,141.729L287.779,9.43c-19.301-12.538-44.251-12.552-63.563-0.033L20.626,141.349    C7.711,149.719,0,163.904,0,179.295v321.557c0,6.146,4.984,11.13,11.13,11.13h89.044h311.652h89.043    c6.146,0,11.13-4.984,11.13-11.13V179.649C512,164.278,504.306,150.102,491.416,141.729z M400.696,489.723H111.304v-33.391    h289.391V489.723z M400.696,434.071H111.304V411.81h289.391V434.071z M400.696,345.027H211.478c-6.146,0-11.13,4.984-11.13,11.13    c0,6.146,4.984,11.13,11.13,11.13h189.217v22.261H111.304v-22.261h33.391c6.146,0,11.13-4.984,11.13-11.13    c0-6.146-4.984-11.13-11.13-11.13h-33.391v-33.391h289.391V345.027z M489.739,489.723h-66.783V300.506    c0-6.146-4.984-11.13-11.13-11.13H100.174c-6.146,0-11.13,4.984-11.13,11.13v189.217H22.261V179.295    c0-0.411,0.017-0.818,0.038-1.225h56.727c6.146,0,11.13-4.984,11.13-11.13s-4.984-11.13-11.13-11.13H39.243l197.08-127.733    c11.949-7.745,27.386-7.738,39.327,0.021l203.638,132.299c6.545,4.251,10.451,11.449,10.451,19.253V489.723z" fill="#FFFFFF"/>
	</g>
</g>
<g>
	<g>
		<path d="M411.826,200.332H300.522h-89.043H100.174c-6.146,0-11.13,4.984-11.13,11.13v44.522c0,6.146,4.984,11.13,11.13,11.13    h111.304h89.043h111.304c6.146,0,11.13-4.984,11.13-11.13v-44.522C422.957,205.315,417.972,200.332,411.826,200.332z     M200.348,244.853h-89.043v-22.261h89.043V244.853z M289.391,244.853h-66.783v-22.261h66.783V244.853z M400.696,244.853h-89.044    v-22.261h89.044V244.853z" fill="#FFFFFF"/>
	</g>
</g>
<g>
	<g>
		<path d="M185.955,348.289c-2.069-2.07-4.941-3.261-7.868-3.261s-5.799,1.19-7.869,3.261c-2.07,2.071-3.261,4.942-3.261,7.869    s1.19,5.799,3.261,7.868c2.07,2.071,4.942,3.262,7.869,3.262s5.799-1.191,7.868-3.262c2.07-2.069,3.262-4.941,3.262-7.868    S188.026,350.359,185.955,348.289z" fill="#FFFFFF"/>
	</g>
</g>
<g>
	<g>
		<path d="M120.286,159.071c-2.069-2.07-4.941-3.261-7.868-3.261s-5.799,1.19-7.869,3.261c-2.07,2.071-3.261,4.942-3.261,7.869    s1.19,5.799,3.261,7.868c2.07,2.071,4.942,3.262,7.869,3.262s5.799-1.191,7.868-3.262c2.07-2.069,3.262-4.941,3.262-7.868    S122.357,161.141,120.286,159.071z" fill="#FFFFFF"/>
	</g>
</g>
<g>
</g>
<g>
</g>
<g>
</g>
<g>
</g>
<g>
</g>
<g>
</g>
<g>
</g>
<g>
</g>
<g>
</g>
<g>
</g>
<g>
</g>
<g>
</g>
<g>
</g>
<g>
</g>
<g>
</g>
</svg>
